<?xml version="1.0" encoding="utf-8"?>
<!-- Generator: Adobe Illustrator 23.1.1, SVG Export Plug-In . SVG Version: 6.00 Build 0)  -->
<svg version="1.1" id="Layer_1" xmlns="http://www.w3.org/2000/svg" xmlns:xlink="http://www.w3.org/1999/xlink" x="0px" y="0px"
	 viewBox="0 0 32 32" style="enable-background:new 0 0 32 32;" xml:space="preserve">
<style type="text/css">
	.st0{fill:#88B8FD;}
	.st1{fill:#000080;}
</style>
<g>
	<path class="st0" d="M22.8,12.1v-1.8h-2.3v1.8H19v-1.8h-2.3v1.8h-1.4v-1.8H13v1.8h-1.4v-1.8H9.2v1.8H7.3v13.5h6.1V24
		c0-1.5,1.2-2.7,2.7-2.7s2.7,1.2,2.7,2.7v1.6h5.9V12.1H22.8z"/>
	<polygon class="st1" points="8.2,5.8 8.2,7.2 7.3,7.2 7.3,5.8 4.9,5.8 4.9,7.2 4,7.2 4,5.8 1.6,5.8 1.6,8.1 3.3,8.1 4,8.1 4.9,8.1 
		7.3,8.1 8.2,8.1 9,8.1 10.6,8.1 10.6,5.8 	"/>
	<polygon class="st1" points="28.1,5.8 28.1,7.2 27.1,7.2 27.1,5.8 24.7,5.8 24.7,7.2 23.8,7.2 23.8,5.8 21.4,5.8 21.4,8.1 
		23.1,8.1 23.8,8.1 24.7,8.1 27.1,8.1 28.1,8.1 28.8,8.1 30.5,8.1 30.5,5.8 	"/>
	<path class="st1" d="M29.4,8.1h-7l-0.7,17.4h8.3L29.4,8.1z M25.9,16.8c-0.7,0-1.3-0.6-1.3-1.3c0-0.7,0.6-1.3,1.3-1.3
		c0.7,0,1.3,0.6,1.3,1.3C27.2,16.3,26.6,16.8,25.9,16.8z M25.9,12.4c-0.7,0-1.3-0.6-1.3-1.3c0-0.7,0.6-1.3,1.3-1.3
		c0.7,0,1.3,0.6,1.3,1.3C27.2,11.8,26.6,12.4,25.9,12.4z"/>
	<path class="st1" d="M9.6,8.1h-7L1.9,25.5h8.3L9.6,8.1z M6.1,16.8c-0.7,0-1.3-0.6-1.3-1.3c0-0.7,0.6-1.3,1.3-1.3
		c0.7,0,1.3,0.6,1.3,1.3C7.4,16.3,6.8,16.8,6.1,16.8z M6.1,12.4c-0.7,0-1.3-0.6-1.3-1.3c0-0.7,0.6-1.3,1.3-1.3
		c0.7,0,1.3,0.6,1.3,1.3C7.4,11.8,6.8,12.4,6.1,12.4z"/>
</g>
</svg>
