<?xml version="1.0" standalone="no"?>
<!DOCTYPE svg PUBLIC "-//W3C//DTD SVG 20010904//EN"
 "http://www.w3.org/TR/2001/REC-SVG-20010904/DTD/svg10.dtd">
<svg version="1.0" xmlns="http://www.w3.org/2000/svg"
 width="260.000000pt" height="260.000000pt" viewBox="0 0 260.000000 260.000000"
 preserveAspectRatio="xMidYMid meet">
<metadata>
Created by potrace 1.11, written by Peter Selinger 2001-2013
</metadata>
<g transform="translate(0.000000,260.000000) scale(0.100000,-0.100000)"
fill="#000000" stroke="none">
<path d="M494 2114 c-17 -66 112 -773 168 -921 40 -109 96 -142 139 -82 12 17
70 134 130 260 106 226 136 284 278 544 39 71 71 142 71 157 0 31 -21 55 -58
65 -22 5 -32 0 -61 -34 -73 -82 -230 -387 -342 -662 -32 -80 -60 -138 -63
-130 -16 47 -40 188 -75 433 -34 235 -44 284 -65 320 -43 74 -109 101 -122 50z"/>
<path d="M1348 1794 c-14 -14 -8 -56 12 -89 19 -31 89 -85 110 -85 5 0 10 -5
10 -11 0 -38 -60 -293 -125 -534 -141 -517 -143 -541 -50 -644 36 -39 40 -41
96 -41 248 0 752 332 880 580 32 62 31 169 -3 260 -102 278 -497 549 -828 567
-52 3 -98 2 -102 -3z m432 -290 c129 -71 252 -189 305 -295 36 -69 40 -110 18
-160 -72 -162 -397 -405 -621 -464 -31 -8 -58 -12 -60 -10 -10 10 33 195 104
442 99 349 116 425 112 493 l-3 57 40 -14 c22 -7 69 -30 105 -49z"/>
</g>
</svg>
